<?xml version="1.0" encoding="utf-8"?>
<!-- Generator: Adobe Illustrator 22.0.1, SVG Export Plug-In . SVG Version: 6.00 Build 0)  -->
<svg version="1.1" id="Layer_1" xmlns="http://www.w3.org/2000/svg" xmlns:xlink="http://www.w3.org/1999/xlink" x="0px" y="0px"
	 viewBox="0 0 155.9 155.9" style="enable-background:new 0 0 155.9 155.9;" xml:space="preserve">
<style type="text/css">
	.st0{fill:#DCB088;}
</style>
<g>
	<path class="st0" d="M60.5,63.1c0-3.3-2.2-4.4-5.5-4.4h-6.6v8.8H55C58.3,67.5,60.5,66.4,60.5,63.1z"/>
	<path class="st0" d="M84.9,49.9c0-3.3-2.2-4.4-5.5-4.4h-6.6v8.8h6.6C82.7,54.3,84.9,53.2,84.9,49.9z"/>
	<path class="st0" d="M86.8,98.3c-2.7,0-4.7,1.5-5.3,4.4H92C91.4,99.7,89.4,98.3,86.8,98.3z"/>
	<path class="st0" d="M58.3,49.9c0-3.3-2.2-4.4-5.5-4.4h-4.4v8.8h4.4C56.1,54.3,58.3,53.2,58.3,49.9z"/>
	<polygon class="st0" points="97.2,58.7 107.6,58.7 102.4,44.1 	"/>
	<path class="st0" d="M78,0C34.9,0,0,34.9,0,78c0,43.1,34.9,78,78,78c43,0,78-34.9,78-78C155.9,34.9,121,0,78,0z M68.4,41.1h11
		c6.6,0,9.9,3.3,9.9,8.8s-3.3,8.8-9.9,8.8h-6.6v13.2h-4.4V41.1z M44,41.1h8.8c6.6,0,9.9,3.3,9.9,8.8c0,2.9-0.9,4.9-2.7,6.1
		c3.3,1,4.9,3.2,4.9,7.1c0,5.5-3.3,8.8-9.9,8.8H44V41.1z M58.4,89.5h-6.6v8.8h6.6v4.4h-6.6v13.2h-4.4v-13.2H43v-4.4h4.4v-4.4
		c0-5.5,3.3-8.8,8.8-8.8h2.2V89.5z M74.9,98.3c-4.4,0-8.8,1.1-8.8,6.6v11h-4.4v-22h4.4v8.8c0-5.5,3.3-8.8,8.8-8.8V98.3z M96.7,106
		H81.4c0.5,3.7,3.5,5.5,6.5,5.5c4.4,0,6.6-2.2,6.6-2.2v4.4c0,0-2.2,2.2-6.6,2.2c-6.6,0-11-4.4-11-11s4.4-11,9.9-11s9.9,4.4,9.9,11
		V106z M111.9,115.9H98.7v-4.4h4.4V98.3h-4.4v-4.4h8.8v17.6h4.4V115.9z M103.1,89.5v-4.4h4.4v4.4H103.1z M112.3,71.9l-3.1-8.8H95.6
		l-3.1,8.8h-4.4l11-30.8h6.6l11,30.8H112.3z"/>
</g>
</svg>
