<?xml version="1.0" encoding="utf-8"?>
<!-- Generator: Adobe Illustrator 24.2.0, SVG Export Plug-In . SVG Version: 6.00 Build 0)  -->
<svg version="1.2" baseProfile="tiny" id="Layer_1" xmlns="http://www.w3.org/2000/svg" xmlns:xlink="http://www.w3.org/1999/xlink"
	 x="0px" y="0px" viewBox="0 0 155.9 155.9" overflow="visible" xml:space="preserve">
<path fill="#DCB088" d="M71.2,136.6c20.3,0,36.8-16.5,36.8-36.8S91.5,63.1,71.2,63.1S34.4,79.5,34.4,99.8S50.9,136.6,71.2,136.6"/>
<path fill="#DCB088" d="M71.2,125.1c13.9,0,25.2-11.3,25.2-25.2S85.1,74.6,71.2,74.6S46,85.9,46,99.8S57.3,125.1,71.2,125.1"/>
<path fill="#DCB088" d="M96.1,136.6c14,0,25.3-11.3,25.3-25.3S110.1,86,96.1,86s-25.3,11.3-25.3,25.3S82.2,136.6,96.1,136.6"/>
<g>
	<path fill="#DCB088" d="M78,0C34.9,0,0,34.9,0,78s34.9,78,78,78s78-34.9,78-78C155.9,34.9,121,0,78,0z M101.9,38
		c0,0,5.4,5.8,5.4,9.6c0,3-2.4,5.4-5.4,5.4s-5.4-2.4-5.4-5.4C96.5,43.5,101.9,38,101.9,38z M89.9,15.1c0,0,5.4,5.8,5.4,9.6
		c0,3-2.4,5.4-5.4,5.4s-5.4-2.4-5.4-5.4C84.5,20.6,89.9,15.1,89.9,15.1z M78,38c0,0,5.4,5.8,5.4,9.6c0,3-2.4,5.4-5.4,5.4
		s-5.4-2.4-5.4-5.4C72.5,43.5,78,38,78,38z M66,15.1c0,0,5.4,5.8,5.4,9.6c0,3-2.4,5.4-5.4,5.4s-5.4-2.4-5.4-5.4
		C60.6,20.6,66,15.1,66,15.1z M54,38c0,0,5.4,5.8,5.4,9.6c0,3-2.4,5.4-5.4,5.4s-5.4-2.4-5.4-5.4C48.6,43.5,54,38,54,38z M96.1,137.1
		c-4,0-7.9-0.9-11.3-2.6c-4.2,1.7-8.8,2.6-13.6,2.6c-20.5,0-37.3-16.7-37.3-37.3c0-20.5,16.7-37.3,37.3-37.3
		c16.3,0,30.1,10.5,35.2,25c9.1,4,15.6,13.1,15.6,23.7C122,125.5,110.4,137.1,96.1,137.1L96.1,137.1z"/>
	<path fill="#FFFFFF" d="M106.8,88.9c1.1,3.5,1.6,7.1,1.6,11c0,15.2-9.2,28.4-22.4,34.1c3.1,1.4,6.5,2.1,10,2.1
		c13.7,0,24.8-11.1,24.8-24.8C121,101.4,115.2,92.9,106.8,88.9z"/>
	<path fill="#FFFFFF" d="M91.6,85.9c-4.5-6.5-11.9-10.8-20.4-10.8c-13.6,0-24.7,11.1-24.7,24.7s11.1,24.7,24.7,24.7
		c0.9,0,1.8-0.1,2.7-0.2c-2.3-3.9-3.6-8.3-3.6-13.1C70.3,98.6,79.5,88,91.6,85.9z"/>
	<path fill="#FFFFFF" d="M74.5,125.3c-1.1,0.1-2.2,0.2-3.3,0.2c-14.2,0-25.7-11.5-25.7-25.7S57,74.1,71.2,74.1
		c9,0,16.9,4.6,21.5,11.6c1.1-0.2,2.3-0.2,3.4-0.2c3.2,0,6.2,0.6,9,1.6C100,73.4,86.7,63.6,71.2,63.6c-20,0-36.3,16.3-36.3,36.3
		s16.3,36.3,36.3,36.3c4.4,0,8.6-0.8,12.5-2.2C80,131.8,76.8,128.9,74.5,125.3L74.5,125.3z"/>
	<path fill="#FFFFFF" d="M84.9,133.4c13.2-5.4,22.6-18.4,22.6-33.6c0-4-0.7-7.9-1.9-11.5c-2.9-1.2-6.1-1.9-9.5-1.9
		c-1,0-1.9,0.1-2.9,0.2c2.3,3.9,3.7,8.4,3.7,13.2c0,12.7-9.2,23.3-21.4,25.4C77.9,128.6,81.2,131.5,84.9,133.4z"/>
	<path fill="#FFFFFF" d="M95.9,99.8c0-4.8-1.4-9.3-3.7-13.1c-11.8,1.9-20.9,12.2-20.9,24.5c0,4.8,1.4,9.2,3.7,13
		C86.9,122.4,95.9,112.2,95.9,99.8z"/>
</g>
</svg>
