<?xml version="1.0" encoding="utf-8"?>
<!-- Generator: Adobe Illustrator 24.2.1, SVG Export Plug-In . SVG Version: 6.00 Build 0)  -->
<svg version="1.1" id="Layer_1" xmlns="http://www.w3.org/2000/svg" xmlns:xlink="http://www.w3.org/1999/xlink" x="0px" y="0px"
	 viewBox="0 0 155.9 155.9" style="enable-background:new 0 0 155.9 155.9;" xml:space="preserve">
<style type="text/css">
	.st0{clip-path:url(#SVGID_2_);fill:#DCB088;}
	.st1{clip-path:url(#SVGID_2_);fill:none;}
	.st2{clip-path:url(#SVGID_2_);fill:#FFFFFF;}
</style>
<g>
	<defs>
		<rect id="SVGID_1_" width="155.9" height="155.9"/>
	</defs>
	<clipPath id="SVGID_2_">
		<use xlink:href="#SVGID_1_"  style="overflow:visible;"/>
	</clipPath>
	<path class="st0" d="M77.9,155.9c43,0,77.9-34.9,77.9-77.9C155.9,34.9,121,0,77.9,0S0,34.9,0,77.9C0,121,34.9,155.9,77.9,155.9"/>
	<path class="st1" d="M71.2,136.6c20.3,0,36.8-16.5,36.8-36.8S91.5,63.1,71.2,63.1S34.4,79.5,34.4,99.8S50.9,136.6,71.2,136.6"/>
	<path class="st2" d="M71.2,138.4c-21.3,0-38.6-17.3-38.6-38.6c0-21.3,17.3-38.6,38.6-38.6s38.6,17.3,38.6,38.6
		C109.8,121.1,92.5,138.4,71.2,138.4z M71.2,64.9c-19.3,0-34.9,15.7-34.9,34.9c0,19.3,15.7,34.9,34.9,34.9
		c19.3,0,34.9-15.7,34.9-34.9C106.1,80.6,90.5,64.9,71.2,64.9z"/>
	<path class="st2" d="M54,52.9c3,0,5.4-2.4,5.4-5.4c0-3.7-5.4-9.6-5.4-9.6s-5.4,5.5-5.4,9.6C48.6,50.5,51.1,52.9,54,52.9"/>
	<path class="st2" d="M66,30.1c3,0,5.4-2.4,5.4-5.4c0-3.7-5.4-9.6-5.4-9.6s-5.4,5.5-5.4,9.6C60.6,27.6,63,30.1,66,30.1"/>
	<path class="st2" d="M77.9,52.9c3,0,5.4-2.4,5.4-5.4c0-3.7-5.4-9.6-5.4-9.6s-5.4,5.5-5.4,9.6C72.5,50.5,75,52.9,77.9,52.9"/>
	<path class="st2" d="M89.9,30.1c3,0,5.4-2.4,5.4-5.4c0-3.7-5.4-9.6-5.4-9.6s-5.4,5.5-5.4,9.6C84.5,27.6,86.9,30.1,89.9,30.1"/>
	<path class="st1" d="M71.2,125.1c13.9,0,25.2-11.3,25.2-25.2S85.1,74.6,71.2,74.6S46,85.9,46,99.8S57.3,125.1,71.2,125.1"/>
	<path class="st2" d="M71.2,126.9c-14.9,0-27.1-12.1-27.1-27.1c0-14.9,12.1-27.1,27.1-27.1c14.9,0,27.1,12.1,27.1,27.1
		C98.3,114.7,86.1,126.9,71.2,126.9z M71.2,76.4c-12.9,0-23.4,10.5-23.4,23.4c0,12.9,10.5,23.4,23.4,23.4
		c12.9,0,23.4-10.5,23.4-23.4C94.6,86.9,84.1,76.4,71.2,76.4z"/>
	<path class="st0" d="M96.1,136.6c14,0,25.3-11.3,25.3-25.3c0-14-11.3-25.3-25.3-25.3s-25.3,11.3-25.3,25.3
		C70.8,125.2,82.2,136.6,96.1,136.6"/>
		<!--SMALL PLATE OUTLINE-->
	<path class="st2" d="M96.1,138.4c-15,0-27.2-12.2-27.2-27.1s12.2-27.2,27.2-27.2s27.1,12.2,27.1,27.2S111.1,138.4,96.1,138.4z
		 M96.1,87.8c-12.9,0-23.5,10.5-23.5,23.5c0,12.9,10.5,23.5,23.5,23.5c12.9,0,23.5-10.5,23.5-23.5C119.6,98.3,109.1,87.8,96.1,87.8z
		"/>
		<!--DROP-->
	<path class="st2" d="M101.9,52.9c3,0,5.4-2.4,5.4-5.4c0-3.7-5.4-9.6-5.4-9.6s-5.4,5.5-5.4,9.6C96.4,50.5,98.9,52.9,101.9,52.9"/>
</g>
</svg>
