<?xml version="1.0" encoding="utf-8"?>
<!-- Generator: Adobe Illustrator 22.0.1, SVG Export Plug-In . SVG Version: 6.00 Build 0)  -->
<svg version="1.1" id="Ebene_1" xmlns="http://www.w3.org/2000/svg" xmlns:xlink="http://www.w3.org/1999/xlink" x="0px" y="0px"
	 viewBox="0 0 88.8 60.6" style="enable-background:new 0 0 88.8 60.6;" xml:space="preserve">
<g>
	<path d="M21.4,41.2c0-4.5-2.1-7.5-6.4-7.5c-2.8,0-5.1,1.3-6.7,2.7H8.2l1.9-15.8c3.1,0.5,6.2,0.8,8.7,0.8c3,0,4.9-0.2,6.6-1.9h0.1
		c0,4-1.5,6.4-6.1,6.4c-2.9,0-6.3-0.6-8-1.1l-1,8.5c1.3-1,3.6-1.8,6.2-1.8c5.1,0,9.8,3,9.8,9.4s-5.5,10-11.5,10
		c-5.7,0-9.7-2.9-9.7-6.9c0-2.5,1.8-4,4-4c0.9,0,1.5,0.1,1.9,0.3c-0.8,0.9-1.4,1.8-1.4,3.5c0,3.3,2.1,5.2,5.3,5.2
		C18.9,49.2,21.4,46,21.4,41.2z"/>
	<path d="M32.7,43h-0.6c0.6-3,0.6-6.7,0.6-11.1V10.2c0-2.8-1.4-3.7-3.4-4.9V5h7.8v19.2c1.2-3.6,4.4-6.5,9-6.5
		c6.1,0,10.8,4.5,10.8,12.3c0,8-5.3,13.1-11.5,13.1c-4.5,0-7.7-2.4-9-5C36,40.2,34.5,42,32.7,43z M37.2,32.7c0,5.3,4,7.8,7.3,7.8
		c4.6,0,7.8-3.9,7.8-10.6c0-5.8-2.9-9.6-7.6-9.6c-4.5,0-7.5,4.3-7.5,9.1V32.7z"/>
	<path d="M76.7,42.2v3c0,3.2,0.7,3.6,2.8,5v0.4h-9.9v-0.4c2.1-1.3,2.8-1.8,2.8-5v-3H56.9L56.9,42l16-21.2h3.8v19.4h1.5
		c3.1,0,3.4-0.6,4.8-2.7h0.4v7.5h-0.4c-1.3-2.1-1.6-2.8-4.8-2.8H76.7z M72.3,24.9L60.7,40.2h11.6V24.9z"/>
</g>
</svg>
