<?xml version="1.0" encoding="utf-8"?>
<!-- Generator: Adobe Illustrator 22.0.1, SVG Export Plug-In . SVG Version: 6.00 Build 0)  -->
<svg version="1.1" id="Ebene_1" xmlns="http://www.w3.org/2000/svg" xmlns:xlink="http://www.w3.org/1999/xlink" x="0px" y="0px"
	 viewBox="0 0 268.8 269.1" style="enable-background:new 0 0 268.8 269.1;" xml:space="preserve">
<g>
	<g>
		<path d="M71.8,29l1.5,2.6l2.6-1.5l0.7,1.3L74,32.9l2.3,3.9L75,37.5l-5.3-9.1l5.2-3l0.8,1.3L71.8,29z"/>
	</g>
	<g>
		<path d="M71.8,29l1.5,2.6l2.6-1.5l0.7,1.3L74,32.9l2.3,3.9L75,37.5l-5.3-9.1l5.2-3l0.8,1.3L71.8,29z"/>
	</g>
</g>
<g>
	<path d="M136,257.5v-3h-3V253h3v-4.5h1.5V259h-6v-1.5H136z"/>
</g>
<g>
	<path d="M135.2,11.8v7.5h1.5v1.5h-4.5v-1.5h1.5v-7.5h-1.5v-1.5h4.5v1.5H135.2z"/>
</g>
<g>
	<path d="M70.7,235.3c1.5-2.6,4.2-3.6,6.8-2.1c2.6,1.5,3.1,4.4,1.6,7c-1.5,2.6-4.2,3.6-6.8,2.1C69.7,240.8,69.2,237.9,70.7,235.3z
		 M77.8,239.4c1.1-1.9,0.6-4-1-4.9c-1.6-0.9-3.7-0.4-4.8,1.6s-0.6,4,1,4.9S76.7,241.4,77.8,239.4z"/>
</g>
<g>
	<path d="M200.6,29.2l-8.2,7.4l-1.9-1.1l2.3-10.8l1.3,0.8L192,35l7.3-6.6L200.6,29.2z"/>
</g>
<g>
	<path d="M11.6,136.1h3v-3h1.5v3h3v-4.5h1.5v6H10.1v-6h1.5V136.1z"/>
</g>
<g>
	<path d="M251.4,135.4v1.5h-1.5v-1.5H251.4z M254.4,139.9h-1.5v-1.5h-1.5v-1.5h1.5v-7.5h1.5v7.5h1.5v1.5h-1.5V139.9z M257.4,136.9
		h-1.5v-1.5h1.5V136.9z"/>
</g>
<g>
	<path d="M34.6,70.9l-0.8,1.3l1.3,0.8l-0.8,1.3l-1.3-0.8l-3,5.2l2.6,1.5L32,81.5l-6.5-3.7l0.8-1.3l2.6,1.5l3-5.2L30.5,72l0.8-1.3
		l1.3,0.7l0.8-1.3L34.6,70.9z M29.2,71.2l1.3,0.8l-0.8,1.3l-1.3-0.8L29.2,71.2z M33.7,75.5l0.8-1.3l1.3,0.8L35,76.3L33.7,75.5z"/>
</g>
<g>
	<path d="M233.8,196.4c-1.6-0.9-2-2.5-0.9-4.4l1.9-3.2l9.1,5.2l-1.5,2.6c-1.1,1.9-2.7,2.4-4.3,1.4c-0.9-0.5-1.3-1.1-1.3-1.8
		C235.9,196.9,234.9,197,233.8,196.4z M234.5,195.1c1,0.6,1.7,0.1,2.2-0.9l1.1-1.9l-2.6-1.5l-1.1,1.9
		C233.6,193.7,233.6,194.5,234.5,195.1z M241.8,194.5l-2.6-1.5l-0.8,1.3c-0.6,1-0.6,1.8,0.4,2.4s1.7,0.1,2.2-0.9L241.8,194.5z"/>
</g>
<g>
	<path d="M31.6,193.1l2.4-4.9l0.9,1.6l-1.8,3.6l-1,0.6l0.8,1.3l3.9-2.3l0.8,1.3l-9.1,5.3l-1.9-3.2c-1.1-1.9-0.7-3.5,0.9-4.4
		C29.1,191.1,30.5,191.5,31.6,193.1z M31.7,196.2l-1.1-1.9c-0.6-1-1.3-1.4-2.2-0.9s-0.9,1.4-0.4,2.4l1.1,1.9L31.7,196.2z"/>
</g>
<g>
	<path d="M240.1,71.9l-2.6,1.5L239,76l-1.3,0.8l-1.5-2.6l-2.6,1.5l2.2,3.9l-1.3,0.8l-3-5.2l9.1-5.3l3,5.2l-1.3,0.8L240.1,71.9z"/>
</g>
<g>
	<path d="M197.2,240.3l-1.5-2.6l-2.6,1.5l-0.8-1.3l2.6-1.5l-1.5-2.6l-3.9,2.2l-0.8-1.3l5.2-3l5.3,9.1l-5.2,3l-0.8-1.3L197.2,240.3z"
		/>
</g>
</svg>
