<svg xmlns="http://www.w3.org/2000/svg" viewBox="0 0 297.6 93.5"><path d="M102 0c0 4.7 3.8 8.5 8.5 8.5H170c4.7 0 8.5 3.8 8.5 8.5v59.5c0 4.7-3.8 8.5-8.5 8.5h-42.5c-4.7 0-8.5-3.8-8.5-8.5V51c0-4.7-3.8-8.5-8.5-8.5H102v51h93.5V0H102zm170.1 42.5h-42.5c-4.7 0-8.5-3.8-8.5-8.5V17c0-4.7 3.8-8.5 8.5-8.5h42.5c4.7 0 8.5 3.8 8.5 8.5v17c0 4.7-3.8 8.5-8.5 8.5M204.1 0v93.5h8.5c4.7 0 8.5-3.8 8.5-8.5V59.5c0-4.7 3.8-8.5 8.5-8.5h42.5c4.7 0 8.5 3.8 8.5 8.5V85c0 4.7 3.8 8.5 8.5 8.5h8.5V0h-93.5zM51 51h17c4.7 0 8.5 3.8 8.5 8.5v17c0 4.7-3.8 8.5-8.5 8.5H25.5c-4.7 0-8.5-3.8-8.5-8.5V17c0-4.7 3.8-8.5 8.5-8.5H85c4.7 0 8.5-3.8 8.5-8.5H0v93.5h93.5v-51h-51c0 4.7 3.8 8.5 8.5 8.5"/></svg>